#N canvas 2786 -935 1220 743 12;
#X obj 52 58 *~;
#X obj 536 371 *~;
#X obj 560 332 hsl 162 19 0 1 0 0 empty empty feedback_level -2 -10 0 12 #c6ffc7 #000000 #202020 0 1;
#X obj 117 35 hsl 162 19 0 1 0 0 empty empty gain -2 -10 0 12 #c6ffc7 #000000 #202020 0 1;
#X obj 463 94 delwrite~ \$0-buffer 1000;
#X obj 540 185 hsl 162 19 0 1000 0 0 empty empty delay_time -2 -10 0 12 #c6ffc7 #000000 #202020 0 1;
#X obj 216 429 *~;
#X obj 213 509 dac~ 3 4;
#X obj 361 460 hsl 162 19 0 100 0 0 empty empty vol -2 -10 0 12 #dfdfdf #000000 #202020 0 1;
#X floatatom 537 211 5 0 0 0 - - - 0;
#X floatatom 584 367 5 0 0 0 - - - 0;
#X obj 51 13 adc~ 1;
#X obj 537 238 delread~ \$0-buffer 10;
#X obj 54 5627 lop~;
#X obj 64 5637 lop~;
#X obj 216 458 lop~ 400;
#X floatatom 841 49 4 0 0 0 - - - 0;
#X obj 65 344 rev1~;
#X floatatom 97 319 5 0 0 0 - - - 0;
#X obj 841 123 bng 19 250 50 0 empty empty empty 0 -10 0 12 #fcfcfc #000000 #000000;
#X obj 841 157 float;
#X obj 841 189 + 1;
#X obj 841 227 t f f;
#X floatatom 841 265 5 0 0 0 - - - 0;
#X msg 780 194 0;
#X obj 841 20 keyup;
#X obj 841 82 select 10;
#X obj 780 296 s counter;
#X obj 373 188 r counter;
#X obj 159 187 r counter;
#X obj 157 249 r counter;
#X obj 781 228 s reset;
#X obj 97 275 r reset;
#X obj 554 284 r reset;
#X obj 537 138 r reset;
#X obj 158 274 * 2;
#X floatatom 358 492 5 0 0 0 - - - 0;
#X obj 60 214 expr~ $v1 * ($f2 > 5);
#X obj 281 213 expr~ $v1 * ($f2 <= 5);
#X obj 645 121 r counter;
#X obj 646 146 pow 2;
#X obj 678 270 r counter;
#X obj 679 295 pow 2;
#X connect 0 0 4 0;
#X connect 0 0 37 0;
#X connect 0 0 38 0;
#X connect 1 0 4 0;
#X connect 1 0 6 0;
#X connect 2 0 1 1;
#X connect 2 0 10 0;
#X connect 3 0 0 1;
#X connect 5 0 9 0;
#X connect 6 0 15 0;
#X connect 8 0 6 1;
#X connect 8 0 36 0;
#X connect 9 0 12 0;
#X connect 11 0 0 0;
#X connect 12 0 1 0;
#X connect 15 0 7 0;
#X connect 15 0 7 1;
#X connect 16 0 26 0;
#X connect 17 0 6 0;
#X connect 18 0 17 1;
#X connect 19 0 20 0;
#X connect 20 0 21 0;
#X connect 21 0 22 0;
#X connect 22 0 23 0;
#X connect 22 1 20 1;
#X connect 23 0 27 0;
#X connect 24 0 22 0;
#X connect 24 0 31 0;
#X connect 25 0 16 0;
#X connect 26 0 19 0;
#X connect 28 0 38 1;
#X connect 29 0 37 1;
#X connect 30 0 35 0;
#X connect 32 0 18 0;
#X connect 33 0 2 0;
#X connect 34 0 5 0;
#X connect 35 0 18 0;
#X connect 37 0 17 0;
#X connect 38 0 6 0;
#X connect 39 0 40 0;
#X connect 40 0 5 0;
#X connect 41 0 42 0;
